<?xml version="1.0" encoding="utf-8"?>
<!-- Generator: Adobe Illustrator 25.0.0, SVG Export Plug-In . SVG Version: 6.00 Build 0)  -->
<svg version="1.1" id="Layer_1" xmlns="http://www.w3.org/2000/svg" xmlns:xlink="http://www.w3.org/1999/xlink" x="0px" y="0px"
	 viewBox="0 0 1200 1200" style="enable-background:new 0 0 1200 1200;" xml:space="preserve">
<style type="text/css">
	.st0{display:none;fill:#333232;}
	.st1{font-family:'XXIX';}
	.st2{font-size:519.2643px;}
	.st3{display:none;}
	.st4{display:inline;}
	.st5{display:none;fill:#FFFFFF;}
	.st6{fill:#FFFFFF;}
	.st7{font-family:'VoiceInMyHead';}
	.st8{font-size:338.6903px;}
</style>
<text transform="matrix(1 0 0 1 255.4248 782.6797)" class="st0 st1 st2">YM</text>
<g id="OK" class="st3">
	<path class="st4" d="M563.18,740.84v107.24l-40.88-40.88v-66.36l-54.51-54.51v-58.05l74.95,74.95l74.95-74.95v58.05L563.18,740.84z
		"/>
	<path class="st4" d="M658.19,726.84v120.99h-40.88l0.37-219.55l81.39,81.39l81.76-81.76v219.92h-40.88V726.84l-40.88,40.88
		L658.19,726.84z"/>
</g>
<polygon class="st5" points="754.07,541.62 586.34,373.9 431.89,528.35 277.43,373.9 277.43,493.53 389.76,605.86 389.76,742.62 
	474.01,826.87 474.01,605.86 586.14,493.73 585.57,826.35 669.82,826.35 669.82,577.01 754.07,661.26 838.32,577.01 838.32,826.35 
	922.57,826.35 922.57,373.13 "/>
<g>
	<text transform="matrix(1 0 0 1 143.0654 721.8823)" class="st6 st7 st8">yasir</text>
</g>
</svg>
